<?xml version="1.0" encoding="UTF-8" standalone="no"?>
<!DOCTYPE svg PUBLIC "-//W3C//DTD SVG 1.1//EN" "http://www.w3.org/Graphics/SVG/1.1/DTD/svg11.dtd">
<!-- Created with Vectornator (http://vectornator.io/) -->
<svg height="100%" stroke-miterlimit="10" style="fill-rule:nonzero;clip-rule:evenodd;stroke-linecap:round;stroke-linejoin:round;" version="1.1" viewBox="0 0 1024 1024" width="100%" xml:space="preserve" xmlns="http://www.w3.org/2000/svg" xmlns:vectornator="http://vectornator.io" xmlns:xlink="http://www.w3.org/1999/xlink">
<defs/>
<clipPath id="ArtboardFrame">
<rect height="1024" width="1024" x="0" y="0"/>
</clipPath>
<g clip-path="url(#ArtboardFrame)" id="Layer-1" vectornator:layerName="Layer 1">
<g opacity="1" vectornator:layerName="Group 4">
<path d="M979.327 391.051C975.574 411.707 970.799 432.588 963.82 453.375C943.695 513.318 912.064 562.729 866.052 595.45C840.186 613.843 812.919 625.931 782.018 633.848C759.076 639.726 700.525 646.693 700.495 646.697C658.709 651.196 640.518 653.969 618.233 660.284C597.328 666.208 578.383 674.654 560.488 686.277C553.754 690.65 547.192 695.398 540.698 700.75C516.37 720.798 497.395 748.894 482.509 782.273C474.241 800.814 466.954 820.486 461.39 842.382C453.832 872.125 449.168 902.655 446.917 932.323C446.457 938.379 446.286 943.42 446.031 948.864C552.646 1002.44 721.543 960.775 857.043 838.099C1014.34 695.683 1067.53 497.879 979.327 391.051Z" fill="#C8AE7D" fill-rule="nonzero" opacity="1" stroke="none" vectornator:layerName="Curve 25"/>
<path d="M829.013 323.464C730.988 319.784 612.452 366.083 512.225 456.825C371.995 583.785 314.28 755.143 365.868 866.508C373.237 882.417 382.752 897.062 394.667 910.223C399.414 915.467 404.595 920.132 409.878 924.697C412.415 894.472 417.059 863.428 424.795 832.983C442.195 764.501 471.707 708.43 516.803 671.266C544.778 648.214 574.539 633.109 608.221 623.563C633.252 616.469 696.951 608.799 696.981 608.795C772.644 600.649 805.135 592.349 844.52 564.341C883.091 536.912 910.341 494.247 928.111 441.318C936.396 416.643 941.974 391.383 945.39 367.032C945.753 364.445 945.974 362.534 946.276 360.09C913.802 337.17 873.57 325.137 829.013 323.464Z" fill="#C8AE7D" fill-rule="nonzero" opacity="1" stroke="none"/>
<path d="M79.8494 107.58C-7.44916 188.917-27.1978 361.742 40.7124 531.441C99.4914 678.321 207.323 780.488 312.604 804.661C310.004 786.112 308.91 761.041 315.262 730.818C315.887 727.843 317.597 723.154 318.363 719.889C293.484 691.011 274.663 659.49 265.196 624.336C256.943 593.688 255.082 563.906 258.403 532.179C260.868 508.625 274.64 451.277 274.648 451.247C284.959 410.504 288.772 392.371 290.598 369.281C292.957 339.47 289.764 311.665 279.669 282.589C263.588 236.266 226.442 194.902 174.369 158.975C149.109 141.547 122.094 126.652 95.0611 114.226C89.5425 111.689 84.8651 109.712 79.8494 107.58Z" fill="#C8AE7D" fill-rule="nonzero" opacity="1" stroke="none" vectornator:layerName="Curve 29"/>
<path d="M208.189 60.1728C200.421 59.8271 192.797 60.0128 185.15 60.6159C167.671 61.9943 150.532 65.8349 134.05 72.4308C127.483 75.059 121.411 78.3685 115.294 81.7351C142.751 94.6221 170.224 109.679 196.079 127.518C254.238 167.644 296.54 214.831 315.705 270.036C327.593 304.279 331.314 337.482 328.554 372.382C326.502 398.317 311.725 460.669 311.717 460.699C293.047 534.474 289.404 567.775 301.97 614.441C307.686 635.666 317.979 655.595 331.064 674.549C340.577 644.263 351.72 613.437 364.146 590.811C390.449 542.918 426.801 494.825 466.493 457.45C496.334 429.351 521.582 411.555 538.121 400.443C532.541 380.455 526.359 360.396 518.331 340.334C452.442 175.687 324.706 65.3576 208.189 60.1728Z" fill="#C8AE7D" fill-rule="nonzero" opacity="1" stroke="none" vectornator:layerName="Curve 30"/>
</g>
</g>
</svg>
