<svg xmlns="http://www.w3.org/2000/svg" xmlns:xlink="http://www.w3.org/1999/xlink" width="500" zoomAndPan="magnify" viewBox="0 0 375 374.999991" height="500" preserveAspectRatio="xMidYMid meet" version="1.0">
   <defs>
      <filter x="0%" y="0%" width="100%" height="100%" id="6e90a7853d">
         <feColorMatrix values="0 0 0 0 1 0 0 0 0 1 0 0 0 0 1 0 0 0 1 0" color-interpolation-filters="sRGB"/>
      </filter>
     
      
      <clipPath id="ae20b55a77">
         <path d="M 372.519531 44.394531 L 353.179688 352.789062 L 2.117188 330.773438 L 21.457031 22.378906 Z M 372.519531 44.394531 " clip-rule="nonzero"/>
      </clipPath>
      <mask id="d4a8cea387">
         <g filter="url(#6e90a7853d)">
            <rect x="-37.5" width="450" fill="#4d6876" y="-37.499999" height="449.999989" fill-opacity="1"/>
         </g>
      </mask>
      <clipPath id="e214acfef5">
         <path d="M 74 64 L 228 64 L 228 230 L 74 230 Z M 74 64 " clip-rule="nonzero"/>
      </clipPath>
      <clipPath id="173b8ee474">
         <path d="M 48.671875 0.304688 L 331.050781 48.734375 L 282.617188 331.109375 L 0.242188 282.679688 Z M 48.671875 0.304688 " clip-rule="nonzero"/>
      </clipPath>
      <clipPath id="c90ad6bfd0">
         <path d="M 48.671875 0.304688 L 331.050781 48.734375 L 282.617188 331.109375 L 0.242188 282.679688 Z M 48.671875 0.304688 " clip-rule="nonzero"/>
      </clipPath>
      <clipPath id="f3c1e61213">
         <path d="M 48.671875 0.304688 L 331.050781 48.734375 L 282.617188 331.109375 L 0.242188 282.679688 Z M 48.671875 0.304688 " clip-rule="nonzero"/>
      </clipPath>
      <clipPath id="7cf988eca6">
         <path d="M 108 100 L 262 100 L 262 266 L 108 266 Z M 108 100 " clip-rule="nonzero"/>
      </clipPath>
      <clipPath id="bf189aa8dd">
         <path d="M 48.671875 0.304688 L 331.050781 48.734375 L 282.617188 331.109375 L 0.242188 282.679688 Z M 48.671875 0.304688 " clip-rule="nonzero"/>
      </clipPath>
      <clipPath id="720c64b357">
         <path d="M 48.671875 0.304688 L 331.050781 48.734375 L 282.617188 331.109375 L 0.242188 282.679688 Z M 48.671875 0.304688 " clip-rule="nonzero"/>
      </clipPath>
      <clipPath id="f979e950ff">
         <path d="M 48.671875 0.304688 L 331.050781 48.734375 L 282.617188 331.109375 L 0.242188 282.679688 Z M 48.671875 0.304688 " clip-rule="nonzero"/>
      </clipPath>
      <clipPath id="82062d299d">
         <rect x="0" width="332" y="0" height="332"/>
      </clipPath>
   </defs>

   <g mask="url(#d4a8cea387)">
      <g transform="matrix(1, 0, 0, 1, 22, 22)">
         <g clip-path="url(#82062d299d)">
            <g clip-path="url(#e214acfef5)">
               <g clip-path="url(#173b8ee474)">
                  <g clip-path="url(#c90ad6bfd0)">
                     <g clip-path="url(#f3c1e61213)">
                        <path fill="#4d6876" d="M 222.417969 71.867188 C 225.746094 73.613281 227.574219 77.296875 226.957031 81 C 226.75 82.640625 226.527344 83.960938 226.527344 83.960938 C 226.527344 83.960938 218.734375 129.054688 158.210938 161.414062 C 133.59375 174.578125 110.042969 198.800781 100.71875 223.625 C 99.484375 226.945312 96.363281 229.195312 92.820312 229.3125 C 89.277344 229.429688 86.015625 227.394531 84.5625 224.15625 C 73.210938 198.992188 63.179688 153.882812 100.519531 108.910156 C 134.191406 68.359375 186.050781 53.5625 222.417969 71.867188 Z M 222.417969 71.867188 " fill-opacity="1" fill-rule="evenodd"/>
                     </g>
                  </g>
               </g>
            </g>
            <g clip-path="url(#7cf988eca6)">
               <g clip-path="url(#bf189aa8dd)">
                  <g clip-path="url(#720c64b357)">
                     <g clip-path="url(#f979e950ff)">
                        <path fill="#4d6876" d="M 113.132812 257.613281 C 109.652344 255.804688 107.730469 251.960938 108.378906 248.09375 C 108.5625 246.578125 108.757812 245.390625 108.757812 245.390625 C 108.757812 245.390625 116.550781 200.296875 177.074219 167.9375 C 201.472656 154.894531 224.820312 130.984375 234.3125 106.398438 C 235.628906 102.972656 238.886719 100.671875 242.558594 100.585938 C 246.234375 100.5 249.597656 102.636719 251.074219 106 C 262.285156 131.3125 271.710938 175.941406 234.765625 220.441406 C 201.175781 260.890625 149.488281 275.714844 113.132812 257.613281 Z M 113.132812 257.613281 " fill-opacity="1" fill-rule="evenodd"/>
                     </g>
                  </g>
               </g>
            </g>
         </g>
      </g>
   </g>
</svg>