<svg xmlns="http://www.w3.org/2000/svg" xmlns:xlink="http://www.w3.org/1999/xlink" width="500" zoomAndPan="magnify" viewBox="0 0 375 374.999991" height="500" preserveAspectRatio="xMidYMid meet" version="1.0">
   <defs>
      <mask id="d4a8cea387">
         <g filter="url(#6e90a7853d)">
            <rect x="-37.5" width="450" fill="#000000" y="-37.499999" height="449.999989" fill-opacity="1"/>
         </g>
      </mask>

   </defs>
   <g clip-path="url(#8f8ebf13b5)">
      <g clip-path="url(#c047ca1bef)">
         <g clip-path="url(#ae20b55a77)">
            <path fill="#3d3b3a" d="M 344.105469 158.492188 C 344.574219 161.03125 344.984375 163.578125 345.328125 166.136719 C 345.675781 168.691406 345.960938 171.257812 346.179688 173.828125 C 346.402344 176.398438 346.5625 178.972656 346.660156 181.550781 C 346.753906 184.132812 346.789062 186.710938 346.761719 189.289062 C 346.730469 191.871094 346.640625 194.449219 346.488281 197.027344 C 346.332031 199.601562 346.117188 202.171875 345.835938 204.738281 C 345.558594 207.304688 345.214844 209.859375 344.8125 212.410156 C 344.410156 214.957031 343.945312 217.496094 343.417969 220.023438 C 342.890625 222.546875 342.304688 225.058594 341.65625 227.558594 C 341.003906 230.054688 340.296875 232.535156 339.527344 235 C 338.757812 237.460938 337.929688 239.90625 337.039062 242.328125 C 336.152344 244.753906 335.207031 247.152344 334.203125 249.527344 C 333.195312 251.90625 332.132812 254.257812 331.015625 256.582031 C 329.894531 258.910156 328.722656 261.207031 327.492188 263.472656 C 326.257812 265.742188 324.972656 267.980469 323.636719 270.183594 C 322.296875 272.390625 320.902344 274.5625 319.457031 276.703125 C 318.011719 278.839844 316.515625 280.941406 314.96875 283.007812 C 313.421875 285.074219 311.824219 287.101562 310.179688 289.085938 C 308.535156 291.074219 306.839844 293.023438 305.101562 294.929688 C 303.359375 296.835938 301.574219 298.695312 299.742188 300.515625 C 297.914062 302.335938 296.039062 304.109375 294.121094 305.835938 C 292.203125 307.566406 290.246094 309.246094 288.246094 310.878906 C 286.25 312.511719 284.210938 314.09375 282.136719 315.628906 C 280.058594 317.164062 277.949219 318.644531 275.800781 320.078125 C 273.652344 321.507812 271.46875 322.886719 269.253906 324.210938 C 267.039062 325.539062 264.792969 326.808594 262.519531 328.023438 C 260.242188 329.242188 257.9375 330.402344 255.605469 331.507812 C 253.269531 332.609375 250.910156 333.65625 248.527344 334.648438 C 246.144531 335.636719 243.738281 336.570312 241.308594 337.441406 C 238.878906 338.316406 236.429688 339.128906 233.960938 339.882812 C 231.492188 340.636719 229.007812 341.328125 226.503906 341.960938 C 224 342.597656 221.484375 343.167969 218.953125 343.679688 C 218.019531 343.871094 217.070312 344.050781 216.097656 344.226562 L 215.40625 341.742188 C 216.417969 341.558594 217.433594 341.367188 218.449219 341.160156 C 220.957031 340.652344 223.449219 340.085938 225.929688 339.457031 C 228.410156 338.832031 230.875 338.144531 233.320312 337.394531 C 235.769531 336.644531 238.195312 335.835938 240.601562 334.96875 C 243.007812 334.101562 245.394531 333.175781 247.753906 332.195312 C 250.117188 331.210938 252.453125 330.167969 254.761719 329.070312 C 257.074219 327.972656 259.355469 326.816406 261.609375 325.609375 C 263.863281 324.398438 266.085938 323.132812 268.28125 321.8125 C 270.472656 320.496094 272.628906 319.125 274.753906 317.699219 C 276.878906 316.273438 278.96875 314.796875 281.019531 313.273438 C 283.074219 311.746094 285.089844 310.167969 287.0625 308.542969 C 289.039062 306.917969 290.972656 305.246094 292.867188 303.527344 C 294.761719 301.804688 296.609375 300.039062 298.417969 298.230469 C 300.226562 296.417969 301.988281 294.566406 303.703125 292.667969 C 305.417969 290.769531 307.089844 288.832031 308.710938 286.855469 C 310.332031 284.875 311.902344 282.859375 313.425781 280.804688 C 314.949219 278.75 316.417969 276.65625 317.839844 274.53125 C 319.257812 272.402344 320.625 270.242188 321.941406 268.046875 C 323.253906 265.851562 324.515625 263.625 325.71875 261.371094 C 326.925781 259.113281 328.074219 256.832031 329.167969 254.519531 C 330.261719 252.207031 331.296875 249.867188 332.277344 247.503906 C 333.253906 245.140625 334.175781 242.753906 335.035156 240.347656 C 335.898438 237.941406 336.703125 235.511719 337.445312 233.0625 C 338.1875 230.617188 338.871094 228.152344 339.492188 225.671875 C 340.113281 223.191406 340.675781 220.695312 341.175781 218.1875 C 341.675781 215.679688 342.113281 213.160156 342.492188 210.632812 C 342.867188 208.101562 343.183594 205.5625 343.4375 203.019531 C 343.6875 200.472656 343.878906 197.921875 344.003906 195.367188 C 344.132812 192.8125 344.199219 190.257812 344.199219 187.699219 C 344.203125 185.144531 344.144531 182.585938 344.019531 180.03125 C 343.898438 177.476562 343.710938 174.925781 343.464844 172.382812 C 343.214844 169.835938 342.90625 167.296875 342.535156 164.765625 C 342.164062 162.234375 341.730469 159.714844 341.234375 157.207031 C 342.179688 157.652344 343.128906 158.085938 344.097656 158.492188 Z M 158.890625 33.4375 C 158.058594 33.589844 157.234375 33.746094 156.402344 33.917969 C 153.886719 34.421875 151.386719 34.992188 148.898438 35.621094 C 146.414062 36.253906 143.945312 36.941406 141.492188 37.695312 C 139.039062 38.445312 136.605469 39.257812 134.195312 40.125 C 131.78125 40.996094 129.390625 41.925781 127.023438 42.914062 C 124.65625 43.902344 122.316406 44.945312 120 46.050781 C 117.683594 47.152344 115.398438 48.3125 113.136719 49.527344 C 110.878906 50.742188 108.652344 52.011719 106.457031 53.335938 C 104.257812 54.660156 102.097656 56.035156 99.96875 57.464844 C 97.839844 58.898438 95.746094 60.378906 93.691406 61.910156 C 91.632812 63.445312 89.617188 65.027344 87.636719 66.660156 C 85.660156 68.289062 83.722656 69.96875 81.828125 71.695312 C 79.929688 73.425781 78.078125 75.195312 76.269531 77.015625 C 74.460938 78.832031 72.699219 80.691406 70.980469 82.597656 C 69.261719 84.503906 67.59375 86.449219 65.972656 88.433594 C 64.347656 90.421875 62.777344 92.445312 61.253906 94.507812 C 59.730469 96.570312 58.261719 98.671875 56.839844 100.808594 C 55.421875 102.941406 54.054688 105.113281 52.742188 107.316406 C 51.429688 109.515625 50.171875 111.75 48.96875 114.015625 C 47.765625 116.28125 46.617188 118.570312 45.527344 120.894531 C 44.4375 123.214844 43.402344 125.558594 42.425781 127.929688 C 41.453125 130.300781 40.535156 132.695312 39.675781 135.113281 C 38.820312 137.527344 38.019531 139.964844 37.28125 142.421875 C 36.542969 144.875 35.867188 147.347656 35.25 149.835938 C 34.632812 152.324219 34.078125 154.828125 33.582031 157.34375 C 33.089844 159.859375 32.65625 162.386719 32.285156 164.925781 C 31.914062 167.460938 31.609375 170.007812 31.363281 172.558594 C 31.117188 175.113281 30.933594 177.667969 30.816406 180.230469 C 30.695312 182.792969 30.640625 185.355469 30.644531 187.917969 C 30.652344 190.480469 30.722656 193.042969 30.851562 195.605469 C 30.984375 198.167969 31.179688 200.722656 31.4375 203.273438 C 31.695312 205.824219 32.015625 208.367188 32.398438 210.902344 C 32.78125 213.4375 33.222656 215.964844 33.730469 218.476562 C 32.785156 218.015625 31.832031 217.570312 30.863281 217.148438 C 30.382812 214.609375 29.960938 212.058594 29.605469 209.496094 C 29.25 206.933594 28.957031 204.363281 28.726562 201.789062 C 28.496094 199.210938 28.328125 196.632812 28.222656 194.046875 C 28.117188 191.460938 28.074219 188.878906 28.09375 186.289062 C 28.113281 183.703125 28.199219 181.121094 28.34375 178.539062 C 28.492188 175.953125 28.699219 173.378906 28.972656 170.804688 C 29.246094 168.234375 29.578125 165.667969 29.976562 163.113281 C 30.375 160.558594 30.832031 158.011719 31.351562 155.480469 C 31.875 152.945312 32.457031 150.425781 33.101562 147.921875 C 33.742188 145.417969 34.449219 142.929688 35.214844 140.457031 C 35.976562 137.988281 36.804688 135.535156 37.6875 133.105469 C 38.570312 130.675781 39.515625 128.265625 40.515625 125.882812 C 41.519531 123.496094 42.578125 121.136719 43.695312 118.804688 C 44.808594 116.472656 45.984375 114.167969 47.210938 111.890625 C 48.441406 109.613281 49.722656 107.371094 51.0625 105.15625 C 52.402344 102.941406 53.792969 100.761719 55.238281 98.617188 C 56.679688 96.46875 58.175781 94.359375 59.722656 92.289062 C 61.269531 90.214844 62.867188 88.179688 64.515625 86.183594 C 66.160156 84.191406 67.855469 82.234375 69.597656 80.324219 C 71.335938 78.410156 73.125 76.539062 74.957031 74.714844 C 76.789062 72.890625 78.664062 71.109375 80.585938 69.375 C 82.503906 67.640625 84.464844 65.953125 86.464844 64.3125 C 88.46875 62.675781 90.507812 61.085938 92.585938 59.546875 C 94.667969 58.007812 96.78125 56.519531 98.933594 55.082031 C 101.085938 53.644531 103.269531 52.261719 105.488281 50.929688 C 107.707031 49.601562 109.957031 48.324219 112.238281 47.105469 C 114.519531 45.882812 116.828125 44.71875 119.167969 43.609375 C 121.503906 42.5 123.867188 41.449219 126.257812 40.457031 C 128.644531 39.464844 131.058594 38.53125 133.492188 37.652344 C 135.925781 36.777344 138.378906 35.960938 140.855469 35.203125 C 143.328125 34.449219 145.820312 33.753906 148.328125 33.117188 C 150.835938 32.484375 153.359375 31.910156 155.894531 31.394531 C 156.660156 31.242188 157.429688 31.097656 158.191406 30.953125 Z M 158.890625 33.4375 " fill-opacity="1" fill-rule="evenodd"/>
         </g>
      </g>
   </g>
  
</svg>